<?xml version="1.0" standalone="no"?>
<svg xmlns="http://www.w3.org/2000/svg" viewBox="0 0 3743 2892.53" width="512">
    <title>The Noesis Magazine</title>
    <g id="Layer_2" data-name="Layer 2">
        <g id="Layer_1-2" data-name="Layer 1">
            <path d="M1381.91,125.72,2752.17,2499.48l72.5-125.7H82.79l72.5,125.7L1525.91,125.72a83.37,83.37,0,0,0-144-83.92L11.1,2415.56a83.93,83.93,0,0,0,72.5,125.61H2824.49a83.83,83.83,0,0,0,72.5-125.61L1525.91,41.26a83.47,83.47,0,1,0-144,84.46Z" />
            <path d="M2216.3,478.8,3587.2,2853.19l72.5-127.33h-2742l72.5,125.7L2360.49,479a83.38,83.38,0,0,0-144-84L846,2768.55a83.92,83.92,0,0,0,71.68,124H3659.43a84,84,0,0,0,72.5-125.7L2360.3,394.79a83.37,83.37,0,0,0-144,84Z" />
        </g>
    </g>
</svg>