<svg xmlns="http://www.w3.org/2000/svg" viewBox="0 0 3138.63 354.97"><title>Asset 1logo black</title><g id="Layer_2" data-name="Layer 2"><g id="Layer_1-2" data-name="Layer 1"><path d="M557,271.2h36V113.37h60.44V80.72H496.58v32.65H557ZM672.68,80.72V271.2h33.23V202.59c0-20,13.61-36.74,33.24-36.74,17.69,0,30.32,10.3,30.32,34.79V271.2h33.24V200.45c0-39.46-16.91-65.31-55-65.31-15.16,0-29.93,4.67-41.79,20.21V80.72ZM963.83,216c5.25-55.2-22.93-83-67.83-83-43.54,0-71.14,29.35-71.14,70.17,0,43,27.41,71.52,73.67,71.52,20.41,0,43.54-7,57.72-21.76l-21.18-21c-7.78,8-23.71,12.64-36,12.64-23.52,0-37.9-12-40-28.57ZM859.65,188.4c4.86-17.3,19.64-26.05,37.52-26.05,19,0,32.65,8.75,34.79,26.05ZM1172,198.89,1078.7,80.72h-29.15V271.2h36V142.72L1185.6,271.39v-.19H1208V80.52h-36Zm129.45-64.53c-42.57,0-69.39,31.49-69.39,70s26.24,69.78,69.78,69.78,70-31.29,70-69.78S1344.21,134.36,1301.45,134.36Zm.39,30.13c22.35,0,36.34,19.63,36.34,39.84,0,20.41-12.24,39.46-36.34,39.46-24.3,0-36.55-19-36.55-39.46C1265.29,184.12,1277.93,164.49,1301.84,164.49ZM1527.69,216c5-55.2-22.94-83-67.84-83-43.53,0-71.33,29.35-71.33,70.17,0,43,27.6,71.52,73.86,71.52,20.41,0,43.54-7,57.73-21.76l-21.38-21c-7.58,8-23.52,12.64-35.77,12.64-23.51,0-37.9-12-40-28.57Zm-104.18-27.6c4.86-17.3,19.43-26.05,37.51-26.05,19,0,32.65,8.75,34.79,26.05Zm235.76-37.52c-15.35-13.6-31.29-17.68-52.09-17.68-24.49,0-56.75,10.88-56.75,42,0,30.51,30.32,39.65,55.59,41.59,19,1.17,26.62,4.86,26.62,14.19,0,9.72-11.66,16.33-24.1,15.94-15-.19-36.73-8.16-46.26-18.66L1546,252c19.43,20.41,40.81,23.91,62,23.91,38.29,0,57.73-20.41,57.73-44.12,0-35.57-32.27-41.4-57.54-43-17.1-1.17-25.07-6-25.07-14.78,0-8.35,8.75-13.21,24.49-13.21,12.83,0,23.71,2.91,33.24,11.85Zm60.84-14.38V271.2h-33.24V136.5Zm-36.35-37.32c0,25.85,39.26,25.85,39.26,0S1683.76,73.33,1683.76,99.18Zm172.4,51.7c-15.55-13.6-31.29-17.68-52.28-17.68-24.49,0-56.56,10.88-56.56,42,0,30.51,30.13,39.65,55.39,41.59,19,1.17,26.63,4.86,26.63,14.19,0,9.72-11.66,16.33-24.1,15.94-15-.19-36.73-8.16-46.26-18.66L1742.65,252c19.64,20.41,40.82,23.91,62,23.91,38.29,0,57.72-20.41,57.72-44.12,0-35.57-32.07-41.4-57.53-43-17.1-1.17-24.88-6-24.88-14.78,0-8.35,8.56-13.21,24.49-13.21,12.64,0,23.52,2.91,33,11.85Zm250.73,120.51h36V80.91h-41l-59.67,82-59.47-82h-41.4V271.39h36V133l60.65,83h7l62-82.8Zm175.32-115.84c-7.58-13.41-24.68-21.77-42.76-21.77-39.07-.19-70,23.91-70,70.17,0,47,29.54,71.52,69.19,71.33,15-.2,36-8,43.54-23.71l1.56,19.63h31.29V137.08h-31.68Zm-39.65,8c52.09,0,52.09,81.24,0,81.24-22.16,0-39.84-15.16-39.84-40.81C2202.72,178.48,2220.4,163.52,2242.56,163.52Zm192.62-23.13c-9.33-6.42-20.22-7.78-30.71-7.78-37.71,0-68,26.24-68,68,0,42,26,67.64,68,67.64,16.52,0,34,8.36,34,26.82s-15,29-34,29-35.18-11.46-35.18-29h-32.85c0,36.15,29,59.87,68,59.87,38.87,0,67.05-22.74,67.05-59.87,0-17.1-5.44-33.23-27.6-44.31,22-10.11,28.19-33.43,28.19-50.15,0-14.58-3.7-28-14.19-39.65l15-19.05-24.49-18.46Zm-30.71,22.54c19.05,0,34.79,14.58,34.79,37.71S2423.52,238,2404.47,238c-19.44,0-35.18-13.8-35.18-37.32C2369.29,177.32,2385,162.93,2404.47,162.93Zm194.17-7.38c-7.58-13.41-24.69-21.77-42.76-21.77-39.07-.19-69.78,23.91-69.78,70.17,0,47,29.35,71.52,69,71.33,15-.2,36-8,43.54-23.71l1.75,19.63h31.29V137.08H2599.8Zm-39.65,8c52.28,0,52.28,81.24,0,81.24-22.16,0-39.85-15.16-39.85-40.81C2519.14,178.48,2536.83,163.52,2559,163.52Zm94.46-26.44v30.13h59.28L2648.4,257.4v13.8h112.92V238.54h-62.19l61.8-85.71V137.08Zm160.93-.58V271.2h-33V136.5Zm-36.15-37.32c0,25.85,39.26,25.85,39.26,0S2778.23,73.33,2778.23,99.18Zm198.06,172V200.64c0-42.18-25.27-65.69-56.76-65.69-16.9,0-30.51,6.8-44.12,20l-2.13-18.27h-29.74V271.2h33V202.59c0-20.41,13.8-37.52,34.21-37.52,21.18,0,32.46,15.55,32.46,36V271.2ZM3138,216c5.25-55.2-22.93-83-67.83-83-43.54,0-71.14,29.35-71.14,70.17,0,43,27.41,71.52,73.66,71.52,20.41,0,43.54-7,57.73-21.76l-21.18-21c-7.78,8-23.72,12.64-36,12.64-23.52,0-37.9-12-40-28.57Zm-104.18-27.6c4.86-17.3,19.63-26.05,37.51-26.05,19.05,0,32.66,8.75,34.8,26.05Z"/><path d="M152.49,13.87,303.69,275.8l8-13.87H9.14l8,13.87L168.38,13.87a9.2,9.2,0,0,0-15.89-9.26L1.23,266.54a9.26,9.26,0,0,0,8,13.86H311.67a9.25,9.25,0,0,0,8-13.86L168.38,4.55a9.21,9.21,0,0,0-15.89,9.32Z"/><path d="M244.56,52.83l151.27,262,8-14.05H101.27l8,13.87,151.2-261.8a9.2,9.2,0,0,0-15.89-9.27L93.36,305.49a9.26,9.26,0,0,0,7.91,13.68H403.8a9.27,9.27,0,0,0,8-13.87L260.45,43.56a9.2,9.2,0,0,0-15.89,9.27Z"/></g></g></svg>